<svg xmlns="http://www.w3.org/2000/svg" viewBox="0 0 642.85 559.5"><defs><style>.cls-1{fill:#a6b0b9;}.cls-2{fill:#e5e9ea;}</style></defs><g id="Layer_2" data-name="Layer 2"><g id="Layer_1-2" data-name="Layer 1"><path class="cls-1" d="M170.37,456h288a24,24,0,0,0,24-24V56a24,24,0,0,0-24-24h-112a32,32,0,0,0-64,0h-112a24,24,0,0,0-24,24V432A24,24,0,0,0,170.37,456Zm144-440a16,16,0,0,1,16,16h-32A16,16,0,0,1,314.37,16Zm-48,32h96V80h-96Zm-8,48h112a8,8,0,0,0,8-8V80h56V408h-240V80h56v8A8,8,0,0,0,258.37,96Zm-96-40a8,8,0,0,1,8-8h80V64h-64a8,8,0,0,0-8,8V416a8,8,0,0,0,8,8h256a8,8,0,0,0,8-8V72a8,8,0,0,0-8-8h-64V48h80a8,8,0,0,1,8,8V432a8,8,0,0,1-8,8h-288a8,8,0,0,1-8-8Z"/><path class="cls-1" d="M381,348.39a8,8,0,1,1-14.84,6,56,56,0,0,0-103.85,0,8,8,0,0,1-14.84-6,72,72,0,0,1,133.53,0Z"/><path class="cls-1" d="M421,142.8l-14.32-28.63a8,8,0,0,0-14.31,0L378.1,142.8a24,24,0,0,0-2.53,10.73v2.33a24,24,0,1,0,48,0v-2.33A24.18,24.18,0,0,0,421,142.8Zm-13.47,13.06a8,8,0,1,1-16,0v-2.33a8.08,8.08,0,0,1,.84-3.58l7.16-14.31L406.72,150a8,8,0,0,1,.85,3.58Z"/><circle class="cls-1" cx="361.35" cy="220.26" r="16"/><circle class="cls-1" cx="266.1" cy="220.26" r="16"/><path class="cls-1" d="M571.83,177.37A35.46,35.46,0,1,0,594.9,221.9,35.45,35.45,0,0,0,571.83,177.37Zm-14.36,56.28-7.77-2.47,2.51-7.93,7.78,2.47Zm11.94-16.19a15.08,15.08,0,0,1-7.59,1.7L560.61,223l-7.78-2.46,2.28-7.17,1.26-4,3.88,1.24a6.65,6.65,0,0,0,5.34-.41,6.84,6.84,0,0,0,3.5-4.17,7,7,0,0,0-.48-5.36,6.81,6.81,0,0,0-4.1-3.48,6.65,6.65,0,0,0-4.85.22,6.94,6.94,0,0,0-3.6,3.39l-7.33-3.59a14.85,14.85,0,0,1,7.68-7.3,15.36,15.36,0,0,1,10.57-.5,15.22,15.22,0,0,1,2.43,28.05Z"/><path class="cls-1" d="M49.41,195.76a25.47,25.47,0,1,0,35.94,2.51A25.48,25.48,0,0,0,49.41,195.76Zm29.15,29.85-4.43,3.85L70.21,225l4.42-3.85Zm-5.47-13.37a10.79,10.79,0,0,1-1.79,5.29l1.88,2.17-4.42,3.84-3.54-4.07-2-2.26,2.21-1.92a4.74,4.74,0,0,0,1.74-3.42A4.89,4.89,0,0,0,66,208.16a5,5,0,0,0-3.46-1.71,4.91,4.91,0,0,0-3.67,1.21,4.85,4.85,0,0,0-1.68,3.06,4.94,4.94,0,0,0,.74,3.47l-5,3.16a10.64,10.64,0,0,1-1.6-7.44A11.07,11.07,0,0,1,55,203.24a10.93,10.93,0,0,1,18.11,9Z"/><path class="cls-1" d="M606.21,12.43v24.3h23.71V48H606.21V72.3H593.76V48H570V36.73h23.72V12.43Z"/><path class="cls-1" d="M92.77,346.82v17.6h17.17v8.16H92.77v17.59h-9V372.58H66.59v-8.16H83.76v-17.6Z"/><path class="cls-1" d="M15.52,255.47V265.9H25.71v4.84H15.52v10.43H10.18V270.74H0V265.9H10.18V255.47Z"/><path class="cls-1" d="M90,60.66V74.8h13.8v6.55H90V95.49H82.77V81.35H69V74.8H82.77V60.66Z"/><path class="cls-1" d="M635.06,137.12v8h7.79v3.7h-7.79v8H631v-8h-7.79v-3.7H631v-8Z"/><path class="cls-1" d="M549.7,362.75v8h7.78v3.7H549.7v8h-4.09v-8h-7.79v-3.7h7.79v-8Z"/><ellipse class="cls-2" cx="316.56" cy="521.61" rx="173.93" ry="37.89"/></g></g></svg>